<?xml version="1.0"?>
<svg xmlns="http://www.w3.org/2000/svg" xmlns:xlink="http://www.w3.org/1999/xlink" xmlns:svgjs="http://svgjs.com/svgjs" version="1.1" width="512" height="512" x="0" y="0" viewBox="0 0 512 512" style="enable-background:new 0 0 512 512" xml:space="preserve" class=""><g>
<path xmlns="http://www.w3.org/2000/svg" style="" d="M299.493,502h-90v-86h90V502z M239.493,482h30v-36h-30L239.493,482L239.493,482z" fill="#8b8992" data-original="#8b8992"/>
<polygon xmlns="http://www.w3.org/2000/svg" style="" points="255.993,446 269.493,446 269.493,482 255.993,482 255.993,502 299.493,502 299.493,416   255.993,416 " fill="#57555c" data-original="#57555c" class=""/>
<path xmlns="http://www.w3.org/2000/svg" style="" d="M480.493,376h-449V136h449V376z" fill="#9bc9ff" data-original="#9bc9ff" class=""/>
<rect xmlns="http://www.w3.org/2000/svg" x="255.99" y="136" style="" width="224.5" height="240" fill="#509cd9" data-original="#009ae5" class=""/>
<rect xmlns="http://www.w3.org/2000/svg" x="179.49" y="482" style="" width="150" height="30" fill="#005ece" data-original="#005ece" class=""/>
<path xmlns="http://www.w3.org/2000/svg" style="" d="M239.493,376h-90V171h90V376z" fill="#b87fd9" data-original="#b87fd9" class=""/>
<path xmlns="http://www.w3.org/2000/svg" style="" d="M239.493,376h-45V171h45V376z" fill="#8034ad" data-original="#8034ad"/>
<path xmlns="http://www.w3.org/2000/svg" style="" d="M289.686,131H98.301L59.39,0h57.243c20.439,0,44.228,7.314,62.86,20.502V0h149.103L289.686,131z" fill="#8b8992" data-original="#8b8992"/>
<polygon xmlns="http://www.w3.org/2000/svg" style="" points="328.596,0 193.993,0 193.993,131 289.686,131 " fill="#57555c" data-original="#57555c" class=""/>
<path xmlns="http://www.w3.org/2000/svg" style="" d="M248.493,201h-108c-24.813,0-45-20.187-45-45v-55h198v55C293.493,180.813,273.306,201,248.493,201z" fill="#e3cef0" data-original="#e3cef0"/>
<path xmlns="http://www.w3.org/2000/svg" style="" d="M194.493,101v100h54c24.813,0,45-20.187,45-45v-55H194.493z" fill="#d5b4e8" data-original="#d5b4e8"/>
<path xmlns="http://www.w3.org/2000/svg" style="" d="M427.705,118.346c-9.131,0-18.141-2.394-26.261-7.082c-12.189-7.038-20.909-18.401-24.551-31.997  c-3.643-13.595-1.774-27.795,5.264-39.984s18.401-20.908,31.997-24.551l50.898-13.638l13.637,50.898  c3.643,13.595,1.774,27.795-5.264,39.984s-18.4,20.909-31.996,24.551C436.89,117.744,432.281,118.346,427.705,118.346z" fill="#e0e0e2" data-original="#e0e0e2"/>
<path xmlns="http://www.w3.org/2000/svg" style="" d="M478.688,51.992L465.051,1.094h-0.001l-63.606,110.169l0,0c8.12,4.688,17.13,7.083,26.261,7.082  c4.577,0,9.185-0.602,13.724-1.818c13.595-3.643,24.958-12.362,31.996-24.551C480.462,79.787,482.331,65.587,478.688,51.992z" fill="#acabb1" data-original="#acabb1"/>
<path xmlns="http://www.w3.org/2000/svg" style="" d="M280.915,410.025l-77.942-45l125-216.506l77.942,45L280.915,410.025z" fill="#ffe477" data-original="#ffe477"/>
<rect xmlns="http://www.w3.org/2000/svg" x="301.424" y="165.518" transform="matrix(-0.866 -0.5 0.5 -0.866 459.1859 704.0723)" style="" width="44.999" height="249.995" fill="#ffa733" data-original="#ffa733"/>
<path xmlns="http://www.w3.org/2000/svg" style="" d="M402.462,226.167l-101.036-58.333l87.069-98.688l55.898,32.273L402.462,226.167z" fill="#ff9a00" data-original="#ff9a00"/>
<polygon xmlns="http://www.w3.org/2000/svg" style="" points="444.393,101.419 416.444,85.283 351.944,197 402.462,226.167 " fill="#e67500" data-original="#e67500"/>
<path xmlns="http://www.w3.org/2000/svg" style="" d="M480.493,446h-449V346h449V446z" fill="#005ece" data-original="#005ece" class=""/>
<g xmlns="http://www.w3.org/2000/svg">
	<rect x="255.99" y="346" style="" width="224.5" height="100" fill="#003f8a" data-original="#003f8a"/>
	<rect x="254.49" y="482" style="" width="75" height="30" fill="#003f8a" data-original="#003f8a"/>
</g>
<g xmlns="http://www.w3.org/2000/svg">
</g>
<g xmlns="http://www.w3.org/2000/svg">
</g>
<g xmlns="http://www.w3.org/2000/svg">
</g>
<g xmlns="http://www.w3.org/2000/svg">
</g>
<g xmlns="http://www.w3.org/2000/svg">
</g>
<g xmlns="http://www.w3.org/2000/svg">
</g>
<g xmlns="http://www.w3.org/2000/svg">
</g>
<g xmlns="http://www.w3.org/2000/svg">
</g>
<g xmlns="http://www.w3.org/2000/svg">
</g>
<g xmlns="http://www.w3.org/2000/svg">
</g>
<g xmlns="http://www.w3.org/2000/svg">
</g>
<g xmlns="http://www.w3.org/2000/svg">
</g>
<g xmlns="http://www.w3.org/2000/svg">
</g>
<g xmlns="http://www.w3.org/2000/svg">
</g>
<g xmlns="http://www.w3.org/2000/svg">
</g>
</g></svg>
