<svg width="761" height="905" viewBox="0 0 761 905" fill="none" xmlns="http://www.w3.org/2000/svg">
<g clip-path="url(#clip0)">
<path d="M697.583 0H63.4172C28.4097 0.0494922 0.0416172 33.7855 0 75.4173V829.585C0.0416172 871.215 28.4097 904.951 63.4172 905H697.584C732.59 904.951 760.958 871.215 761.001 829.583V75.4173C760.958 33.7855 732.59 0.0494922 697.583 0ZM735.633 829.583C735.633 854.573 718.598 874.833 697.583 874.833H63.4172C42.4035 874.833 25.3672 854.575 25.3672 829.583V150.833H735.634V829.583H735.633ZM735.633 120.667H25.3672V75.4173C25.3672 50.4272 42.4035 30.1673 63.4172 30.1673H697.584C718.598 30.1673 735.634 50.4272 735.634 75.4173V120.667H735.633Z" fill="#0594CF"/>
<path d="M88.7829 60.3327H76.1C69.0949 60.3327 63.4172 67.0849 63.4172 75.4155C63.4172 83.7461 69.0949 90.5 76.1 90.5H88.7829C95.7879 90.5 101.466 83.7478 101.466 75.4172C101.466 67.0866 95.7879 60.3327 88.7829 60.3327Z" fill="#0594CF"/>
<path d="M144.336 61.54C141.274 59.8802 137.757 59.8802 134.697 61.54C133.16 62.3053 131.745 63.3765 130.512 64.7075C125.607 70.6554 125.607 80.1773 130.512 86.1252C131.745 87.4562 133.16 88.5274 134.697 89.2927C137.768 90.9012 141.265 90.9012 144.336 89.2927C145.873 88.5274 147.288 87.4562 148.521 86.1252C153.426 80.1773 153.426 70.6554 148.521 64.7075C147.288 63.3765 145.873 62.3053 144.336 61.54Z" fill="#0594CF"/>
<path d="M195.113 61.3986C190.354 59.0495 184.872 60.3557 181.244 64.7075C180.125 66.1746 179.224 67.8573 178.581 69.685C177.227 73.3368 177.227 77.4959 178.581 81.1477C179.224 82.9754 180.125 84.6581 181.244 86.1252C186.246 91.9582 194.253 91.9582 199.254 86.1252C200.373 84.6581 201.274 82.9754 201.918 81.1477C202.628 79.3572 202.976 77.3952 202.933 75.4155C202.964 69.289 199.872 63.7477 195.113 61.3986Z" fill="#0594CF"/>
<path d="M684.9 60.3327H253.667C246.662 60.3327 240.984 67.0849 240.984 75.4155C240.984 83.7461 246.662 90.4982 253.667 90.4982H684.9C691.905 90.4982 697.583 83.7461 697.583 75.4155C697.583 67.0849 691.905 60.3327 684.9 60.3327Z" fill="#0594CF"/>
</g>
<defs>
<clipPath id="clip0">
<rect width="761" height="905" fill="white"/>
</clipPath>
</defs>
</svg>
