<svg width="1077" height="756" viewBox="0 0 1077 756" fill="none" xmlns="http://www.w3.org/2000/svg">
<g clip-path="url(#clip0)">
<rect x="401" y="26" width="674" height="413" fill="#1E253D"/>
<rect x="401" width="674" height="24" fill="#F2F2F2"/>
<path d="M864.146 702.423C857.161 729.021 832.687 745.643 832.687 745.643C832.687 745.643 819.536 719.141 826.521 692.543C833.506 665.945 857.98 649.323 857.98 649.323C857.98 649.323 871.13 675.825 864.146 702.423Z" fill="#3F3D56"/>
<path d="M853.552 696.797C833.989 716.124 831.801 745.628 831.801 745.628C831.801 745.628 861.329 743.796 880.892 724.469C900.454 705.142 902.643 675.638 902.643 675.638C902.643 675.638 873.114 677.469 853.552 696.797Z" fill="#509CD9"/>
<path d="M144.734 601.808H181.575L272.363 566.283C272.363 566.283 336.836 539.967 331.573 589.966C326.31 639.965 317.099 707.069 317.099 707.069C317.099 707.069 288.152 693.912 272.363 697.859C256.574 701.806 267.1 617.597 267.1 617.597C267.1 617.597 138.155 679.438 126.313 671.544C114.471 663.649 111.84 608.387 111.84 608.387L144.734 601.808Z" fill="#2F2E41"/>
<path opacity="0.1" d="M144.734 601.808H181.575L272.363 566.283C272.363 566.283 336.836 539.967 331.573 589.966C326.31 639.965 317.099 707.069 317.099 707.069C317.099 707.069 288.152 693.912 272.363 697.859C256.574 701.806 267.1 617.597 267.1 617.597C267.1 617.597 138.155 679.438 126.313 671.544C114.471 663.649 111.84 608.387 111.84 608.387L144.734 601.808Z" fill="black"/>
<path d="M202.778 486.434L247.364 550.494L351.309 637.334C351.309 637.334 447.36 659.702 434.202 675.491C421.045 691.28 340.783 659.702 340.783 659.702C340.783 659.702 221.048 572.861 217.101 566.283C213.154 559.704 169.734 497.863 169.734 497.863L202.778 486.434Z" fill="#F5ACA2"/>
<path opacity="0.1" d="M202.778 486.434L247.364 550.494L351.309 637.334C351.309 637.334 447.36 659.702 434.202 675.491C421.045 691.28 340.783 659.702 340.783 659.702C340.783 659.702 221.048 572.861 217.101 566.283C213.154 559.704 169.734 497.863 169.734 497.863L202.778 486.434Z" fill="black"/>
<path d="M176.312 434.706L205.259 491.284C205.259 491.284 198.68 518.915 188.154 521.547C177.628 524.178 132.892 487.337 132.892 487.337L176.312 434.706Z" fill="#F2F2F2"/>
<path opacity="0.1" d="M176.312 434.706L205.259 491.284C205.259 491.284 198.68 518.915 188.154 521.547C177.628 524.178 132.892 487.337 132.892 487.337L176.312 434.706Z" fill="black"/>
<path d="M529.451 572.514L538.002 607.786C538.097 608.179 538.082 608.591 537.959 608.976L499.171 730.188C499.018 730.668 498.704 731.08 498.283 731.357C497.862 731.634 497.359 731.758 496.857 731.709C496.355 731.659 495.886 731.439 495.527 731.086C495.168 730.732 494.941 730.266 494.884 729.765L489.518 682.546C489.483 682.232 489.515 681.915 489.613 681.615L525.215 572.351C525.364 571.895 525.657 571.5 526.051 571.226C526.444 570.952 526.916 570.814 527.395 570.832C527.874 570.851 528.334 571.025 528.705 571.328C529.076 571.632 529.338 572.048 529.451 572.514Z" fill="#2F2E41"/>
<path d="M526.306 575.493L534.2 605.756L499.99 716.28L492.096 682.07L526.306 575.493Z" fill="#F2F2F2"/>
<path d="M353.941 739.964C355.256 743.911 490.78 738.648 492.096 737.332C493.243 735.684 494.213 733.92 494.99 732.069C496.227 729.437 497.359 726.806 497.359 726.806L492.096 684.201L357.888 679.438C357.888 679.438 354.533 715.543 353.848 732.069C353.677 736.24 353.677 739.174 353.941 739.964Z" fill="#2F2E41"/>
<path opacity="0.1" d="M474.991 689.965L477.622 726.806H418.413V689.965H474.991Z" fill="black"/>
<path opacity="0.1" d="M398.677 701.806L399.03 701.736L397.361 717.596H364.467V701.806H398.677Z" fill="black"/>
<path opacity="0.1" d="M353.941 739.964C355.256 743.911 490.78 738.648 492.096 737.332C493.243 735.684 494.213 733.92 494.99 732.069H353.848C353.677 736.24 353.677 739.174 353.941 739.964Z" fill="black"/>
<path d="M196.049 416.286C228.749 416.286 255.258 389.777 255.258 357.076C255.258 324.376 228.749 297.867 196.049 297.867C163.348 297.867 136.839 324.376 136.839 357.076C136.839 389.777 163.348 416.286 196.049 416.286Z" fill="#F5ACA2"/>
<path d="M192.102 409.707C192.102 409.707 172.365 443.917 168.418 462.337C164.471 480.758 109.208 425.496 109.208 425.496L101.972 406.417C101.972 406.417 153.944 382.076 149.997 362.339C146.05 342.603 192.102 409.707 192.102 409.707Z" fill="#F5ACA2"/>
<path d="M202.628 512.336L256.574 583.388L385.519 679.438C385.519 679.438 478.938 699.175 457.886 713.648C436.834 728.122 376.309 700.491 376.309 700.491C376.309 700.491 246.048 630.755 218.417 601.808C190.786 572.862 139.471 524.178 139.471 524.178L202.628 512.336Z" fill="#F5ACA2"/>
<path d="M130.261 622.861L146.05 647.86L240.281 618.214C260.957 611.71 283.629 614.103 301.968 625.657C318.415 636.018 328.941 652.465 305.257 676.807C257.89 725.49 226.312 699.175 226.312 699.175C226.312 699.175 67.104 774.173 40.7887 737.332C14.4734 700.491 13.1577 682.07 13.1577 682.07C13.1577 682.07 114.472 618.913 130.261 622.861Z" fill="#2F2E41"/>
<path d="M327.625 709.701C327.625 709.701 369.73 737.332 319.731 750.49C269.732 763.647 232.89 745.227 232.89 745.227C232.89 745.227 189.47 745.227 189.47 722.859C189.47 700.491 203.943 697.859 203.943 697.859L248.679 704.438C248.679 704.438 302.626 689.965 327.625 709.701Z" fill="#F2F2F2"/>
<path d="M244.621 342.182C248.651 343.978 252.647 346.105 257.029 346.626C261.41 347.148 266.399 345.618 268.472 341.723C269.592 339.619 269.72 337.145 269.772 334.762C269.931 327.537 269.408 319.726 264.83 314.135C261.916 310.576 257.662 308.333 254.646 304.861C252.485 302.373 251.047 299.358 249.498 296.449C243.632 285.432 234.947 274.844 222.876 271.668C217.836 270.341 212.548 270.406 207.337 270.48L176.94 270.909C172.02 270.978 167.026 271.059 162.317 272.482C152.533 275.441 145.409 283.668 138.884 291.537C134.003 297.423 129.109 303.371 125.446 310.083C120.194 319.879 117.538 330.857 117.732 341.97C117.691 344.82 118.059 347.662 118.824 350.408C119.72 352.926 120.829 355.363 122.141 357.692C127.841 368.889 131.226 382.874 124.806 393.674C135.958 389.119 146.992 383.146 154.348 373.607C157.639 369.339 160.22 364.343 164.606 361.212C168.992 358.08 176.138 357.809 178.952 362.405C179.919 364.264 180.417 366.331 180.403 368.427C180.608 371.877 180.602 375.46 182.065 378.591C183.528 381.722 187.012 384.248 190.339 383.312C196.067 381.698 195.519 372.906 199.931 368.912C203.282 365.878 208.452 366.458 212.757 365.081C217.773 363.477 221.536 359.132 223.681 354.322C225.311 350.666 225.287 341.099 228.371 339.119C232.239 336.636 241.036 340.583 244.621 342.182Z" fill="#2F2E41"/>
<path d="M97.2716 400.176C99.9352 399.465 102.74 399.472 105.4 400.197C113.846 402.464 132.78 408.467 136.839 417.601C142.103 429.443 160.523 447.864 160.523 447.864C160.523 447.864 185.523 472.863 180.26 489.968C174.997 507.073 155.26 526.81 155.26 526.81C155.26 526.81 160.523 608.387 134.208 629.439C107.893 650.492 97.3665 636.018 97.3665 655.755C97.3665 675.491 15.7892 737.332 0 699.175C0 699.175 7.89459 628.124 5.26306 603.124C2.66948 578.485 6.46634 424.759 97.2716 400.176Z" fill="#F2F2F2"/>
<path d="M139.471 433.39C139.471 433.39 219.733 492.6 205.259 517.599C205.259 517.599 156.576 541.283 146.05 539.967C135.524 538.652 94.7351 492.6 84.2089 488.653C73.6828 484.705 68.4198 413.654 139.471 433.39Z" fill="#F2F2F2"/>
<path d="M498.064 302.458C533.962 302.458 563.064 273.356 563.064 237.458C563.064 201.559 533.962 172.458 498.064 172.458C462.165 172.458 433.064 201.559 433.064 237.458C433.064 273.356 462.165 302.458 498.064 302.458Z" fill="#F2F2F2"/>
<path d="M1034.93 153.041H670.681V76.8212H1034.93V153.041ZM672.286 151.436H1033.33V78.4258H672.286V151.436Z" fill="#3F3D56"/>
<path d="M1008.45 92.0651H645.809V166.68H1008.45V92.0651Z" fill="#509CD9"/>
<path d="M416.565 20.8601C419.667 20.8601 422.181 18.3456 422.181 15.2439C422.181 12.1421 419.667 9.62762 416.565 9.62762C413.463 9.62762 410.949 12.1421 410.949 15.2439C410.949 18.3456 413.463 20.8601 416.565 20.8601Z" fill="#509CD9"/>
<path d="M435.82 20.8601C438.922 20.8601 441.437 18.3456 441.437 15.2439C441.437 12.1421 438.922 9.62762 435.82 9.62762C432.719 9.62762 430.204 12.1421 430.204 15.2439C430.204 18.3456 432.719 20.8601 435.82 20.8601Z" fill="#509CD9"/>
<path d="M455.076 20.8601C458.178 20.8601 460.692 18.3456 460.692 15.2439C460.692 12.1421 458.178 9.62762 455.076 9.62762C451.974 9.62762 449.46 12.1421 449.46 15.2439C449.46 18.3456 451.974 20.8601 455.076 20.8601Z" fill="#509CD9"/>
<path d="M1076.06 439.666H400.519V0H1076.06V439.666ZM402.123 438.061H1074.46V1.60462H402.123V438.061Z" fill="#3F3D56"/>
<path d="M1076.06 439.666H400.519V0H1076.06V439.666ZM402.123 438.061H1074.46V1.60462H402.123V438.061Z" stroke="black"/>
<path d="M1075.26 24.338H401.321V25.9427H1075.26V24.338Z" fill="#3F3D56"/>
<path d="M1075.26 24.338H401.321V25.9427H1075.26V24.338Z" stroke="black"/>
<path d="M418.17 19.2555C416.9 19.2555 415.659 18.879 414.604 18.1737C413.548 17.4685 412.726 16.466 412.24 15.2932C411.754 14.1204 411.627 12.8299 411.874 11.5848C412.122 10.3397 412.733 9.19606 413.631 8.29842C414.529 7.40078 415.672 6.78948 416.917 6.54182C418.162 6.29416 419.453 6.42127 420.626 6.90707C421.799 7.39287 422.801 8.21555 423.506 9.27106C424.212 10.3266 424.588 11.5675 424.588 12.837C424.586 14.5387 423.909 16.1701 422.706 17.3733C421.503 18.5766 419.871 19.2535 418.17 19.2555ZM418.17 8.02311C417.218 8.02311 416.287 8.30544 415.495 8.83439C414.704 9.36335 414.087 10.1152 413.722 10.9948C413.358 11.8744 413.263 12.8423 413.448 13.7761C413.634 14.7099 414.092 15.5677 414.766 16.2409C415.439 16.9141 416.297 17.3726 417.23 17.5583C418.164 17.7441 419.132 17.6487 420.012 17.2844C420.891 16.92 421.643 16.303 422.172 15.5114C422.701 14.7198 422.983 13.7891 422.983 12.837C422.982 11.5607 422.474 10.3371 421.572 9.4347C420.669 8.53224 419.446 8.02459 418.17 8.02311Z" fill="#3F3D56"/>
<path d="M437.425 19.2555C436.156 19.2555 434.915 18.879 433.859 18.1737C432.804 17.4685 431.981 16.466 431.495 15.2932C431.009 14.1204 430.882 12.8299 431.13 11.5848C431.378 10.3397 431.989 9.19606 432.887 8.29842C433.784 7.40078 434.928 6.78948 436.173 6.54182C437.418 6.29416 438.708 6.42127 439.881 6.90707C441.054 7.39287 442.057 8.21555 442.762 9.27106C443.467 10.3266 443.844 11.5675 443.844 12.837C443.842 14.5387 443.165 16.1701 441.961 17.3733C440.758 18.5766 439.127 19.2535 437.425 19.2555ZM437.425 8.02311C436.473 8.02311 435.542 8.30544 434.751 8.83439C433.959 9.36335 433.342 10.1152 432.978 10.9948C432.613 11.8744 432.518 12.8423 432.704 13.7761C432.889 14.7099 433.348 15.5677 434.021 16.2409C434.694 16.9141 435.552 17.3726 436.486 17.5583C437.42 17.7441 438.388 17.6487 439.267 17.2844C440.147 16.92 440.899 16.303 441.428 15.5114C441.957 14.7198 442.239 13.7891 442.239 12.837C442.237 11.5607 441.73 10.3371 440.827 9.4347C439.925 8.53224 438.701 8.02459 437.425 8.02311Z" fill="#3F3D56"/>
<path d="M456.681 19.2554C455.411 19.2554 454.17 18.879 453.115 18.1737C452.059 17.4685 451.236 16.466 450.751 15.2932C450.265 14.1204 450.138 12.8299 450.385 11.5848C450.633 10.3397 451.244 9.19606 452.142 8.29842C453.04 7.40078 454.183 6.78948 455.428 6.54182C456.673 6.29416 457.964 6.42127 459.137 6.90706C460.31 7.39286 461.312 8.21553 462.017 9.27104C462.723 10.3266 463.099 11.5675 463.099 12.837C463.097 14.5386 462.42 16.1701 461.217 17.3733C460.014 18.5766 458.382 19.2535 456.681 19.2554ZM456.681 8.02311C455.728 8.0231 454.798 8.30543 454.006 8.83439C453.214 9.36334 452.597 10.1152 452.233 10.9948C451.869 11.8744 451.773 12.8423 451.959 13.7761C452.145 14.7099 452.603 15.5676 453.277 16.2409C453.95 16.9141 454.808 17.3726 455.741 17.5583C456.675 17.7441 457.643 17.6487 458.523 17.2844C459.402 16.92 460.154 16.303 460.683 15.5114C461.212 14.7198 461.494 13.7891 461.494 12.837C461.493 11.5607 460.985 10.3372 460.083 9.4347C459.18 8.53225 457.957 8.02459 456.681 8.02311Z" fill="#3F3D56"/>
<path d="M614.214 25.1404V24.6404H613.714H612.109H611.609V25.1404V439.486V439.986H612.109H613.714H614.214V439.486V25.1404Z" fill="#F2F2F2" stroke="black"/>
<path d="M806.672 228.859H688.733V244.905H806.672V228.859Z" fill="#F2F2F2"/>
<path d="M992.006 228.859H874.067V244.905H992.006V228.859Z" fill="#F2F2F2"/>
<path d="M813.893 237.684H694.349V220.033H813.893V237.684ZM695.954 236.08H812.289V221.638H695.954V236.08Z" fill="#3F3D56"/>
<path d="M806.672 353.217H688.733V369.263H806.672V353.217Z" fill="#F2F2F2"/>
<path d="M813.893 362.042H694.349V344.392H813.893V362.042ZM695.954 360.438H812.289V345.996H695.954V360.438Z" fill="#3F3D56"/>
<path d="M992.407 289.433H689.134V305.479H992.407V289.433Z" fill="#F2F2F2"/>
<path d="M999.628 299.863H694.75V282.212H999.628V299.863ZM696.355 298.259H998.023V283.817H696.355V298.259Z" fill="#3F3D56"/>
<path d="M999.227 237.684H879.683V220.033H999.227V237.684ZM881.287 236.08H997.622V221.638H881.287V236.08Z" fill="#3F3D56"/>
<path d="M509.064 285.458C496.01 285.458 483.25 281.587 472.396 274.335C461.542 267.083 453.083 256.775 448.088 244.715C443.092 232.655 441.785 219.385 444.332 206.582C446.879 193.779 453.164 182.019 462.395 172.789C471.625 163.559 483.385 157.273 496.188 154.726C508.99 152.179 522.261 153.487 534.321 158.482C546.381 163.477 556.689 171.937 563.941 182.79C571.193 193.644 575.064 206.404 575.064 219.458C575.044 236.956 568.084 253.732 555.711 266.105C543.338 278.478 526.562 285.438 509.064 285.458ZM509.064 155.458C496.406 155.458 484.032 159.211 473.507 166.244C462.982 173.276 454.779 183.272 449.935 194.966C445.091 206.661 443.824 219.529 446.293 231.944C448.763 244.359 454.858 255.762 463.809 264.713C472.759 273.663 484.163 279.759 496.578 282.228C508.993 284.698 521.861 283.43 533.555 278.586C545.25 273.742 555.245 265.539 562.278 255.014C569.31 244.49 573.064 232.116 573.064 219.458C573.044 202.49 566.295 186.223 554.297 174.224C542.299 162.226 526.032 155.477 509.064 155.458Z" fill="#3F3D56"/>
<path d="M1031.06 744.458H748.064V746.458H1031.06V744.458Z" fill="#3F3D56"/>
<path d="M774.064 119L764.914 140H761.074L751.894 119H756.124L763.114 135.2L770.164 119H774.064ZM781.919 140.21C780.299 140.21 778.839 139.86 777.539 139.16C776.239 138.46 775.219 137.49 774.479 136.25C773.759 134.99 773.399 133.57 773.399 131.99C773.399 130.41 773.759 129 774.479 127.76C775.219 126.52 776.239 125.55 777.539 124.85C778.839 124.15 780.299 123.8 781.919 123.8C783.559 123.8 785.029 124.15 786.329 124.85C787.629 125.55 788.639 126.52 789.359 127.76C790.099 129 790.469 130.41 790.469 131.99C790.469 133.57 790.099 134.99 789.359 136.25C788.639 137.49 787.629 138.46 786.329 139.16C785.029 139.86 783.559 140.21 781.919 140.21ZM781.919 137C783.299 137 784.439 136.54 785.339 135.62C786.239 134.7 786.689 133.49 786.689 131.99C786.689 130.49 786.239 129.28 785.339 128.36C784.439 127.44 783.299 126.98 781.919 126.98C780.539 126.98 779.399 127.44 778.499 128.36C777.619 129.28 777.179 130.49 777.179 131.99C777.179 133.49 777.619 134.7 778.499 135.62C779.399 136.54 780.539 137 781.919 137ZM803.685 139.13C803.245 139.49 802.705 139.76 802.065 139.94C801.445 140.12 800.785 140.21 800.085 140.21C798.325 140.21 796.965 139.75 796.005 138.83C795.045 137.91 794.565 136.57 794.565 134.81V127.1H791.925V124.1H794.565V120.44H798.315V124.1H802.605V127.1H798.315V134.72C798.315 135.5 798.505 136.1 798.885 136.52C799.265 136.92 799.815 137.12 800.535 137.12C801.375 137.12 802.075 136.9 802.635 136.46L803.685 139.13ZM810.34 126.32C811.42 124.64 813.32 123.8 816.04 123.8V127.37C815.72 127.31 815.43 127.28 815.17 127.28C813.71 127.28 812.57 127.71 811.75 128.57C810.93 129.41 810.52 130.63 810.52 132.23V140H806.77V123.98H810.34V126.32ZM834.134 132.08C834.134 132.34 834.114 132.71 834.074 133.19H821.504C821.724 134.37 822.294 135.31 823.214 136.01C824.154 136.69 825.314 137.03 826.694 137.03C828.454 137.03 829.904 136.45 831.044 135.29L833.054 137.6C832.334 138.46 831.424 139.11 830.324 139.55C829.224 139.99 827.984 140.21 826.604 140.21C824.844 140.21 823.294 139.86 821.954 139.16C820.614 138.46 819.574 137.49 818.834 136.25C818.114 134.99 817.754 133.57 817.754 131.99C817.754 130.43 818.104 129.03 818.804 127.79C819.524 126.53 820.514 125.55 821.774 124.85C823.034 124.15 824.454 123.8 826.034 123.8C827.594 123.8 828.984 124.15 830.204 124.85C831.444 125.53 832.404 126.5 833.084 127.76C833.784 129 834.134 130.44 834.134 132.08ZM826.034 126.8C824.834 126.8 823.814 127.16 822.974 127.88C822.154 128.58 821.654 129.52 821.474 130.7H830.564C830.404 129.54 829.914 128.6 829.094 127.88C828.274 127.16 827.254 126.8 826.034 126.8ZM852.897 140.3C851.277 140.3 849.707 140.07 848.187 139.61C846.687 139.15 845.497 138.54 844.617 137.78L845.967 134.75C846.827 135.43 847.877 135.99 849.117 136.43C850.377 136.85 851.637 137.06 852.897 137.06C854.457 137.06 855.617 136.81 856.377 136.31C857.157 135.81 857.547 135.15 857.547 134.33C857.547 133.73 857.327 133.24 856.887 132.86C856.467 132.46 855.927 132.15 855.267 131.93C854.607 131.71 853.707 131.46 852.567 131.18C850.967 130.8 849.667 130.42 848.667 130.04C847.687 129.66 846.837 129.07 846.117 128.27C845.417 127.45 845.067 126.35 845.067 124.97C845.067 123.81 845.377 122.76 845.997 121.82C846.637 120.86 847.587 120.1 848.847 119.54C850.127 118.98 851.687 118.7 853.527 118.7C854.807 118.7 856.067 118.86 857.307 119.18C858.547 119.5 859.617 119.96 860.517 120.56L859.287 123.59C858.367 123.05 857.407 122.64 856.407 122.36C855.407 122.08 854.437 121.94 853.497 121.94C851.957 121.94 850.807 122.2 850.047 122.72C849.307 123.24 848.937 123.93 848.937 124.79C848.937 125.39 849.147 125.88 849.567 126.26C850.007 126.64 850.557 126.94 851.217 127.16C851.877 127.38 852.777 127.63 853.917 127.91C855.477 128.27 856.757 128.65 857.757 129.05C858.757 129.43 859.607 130.02 860.307 130.82C861.027 131.62 861.387 132.7 861.387 134.06C861.387 135.22 861.067 136.27 860.427 137.21C859.807 138.15 858.857 138.9 857.577 139.46C856.297 140.02 854.737 140.3 852.897 140.3ZM864.895 123.98H868.645V140H864.895V123.98ZM866.785 121.34C866.105 121.34 865.535 121.13 865.075 120.71C864.615 120.27 864.385 119.73 864.385 119.09C864.385 118.45 864.615 117.92 865.075 117.5C865.535 117.06 866.105 116.84 866.785 116.84C867.465 116.84 868.035 117.05 868.495 117.47C868.955 117.87 869.185 118.38 869.185 119C869.185 119.66 868.955 120.22 868.495 120.68C868.055 121.12 867.485 121.34 866.785 121.34ZM883.196 139.13C882.756 139.49 882.216 139.76 881.576 139.94C880.956 140.12 880.296 140.21 879.596 140.21C877.836 140.21 876.476 139.75 875.516 138.83C874.556 137.91 874.076 136.57 874.076 134.81V127.1H871.436V124.1H874.076V120.44H877.826V124.1H882.116V127.1H877.826V134.72C877.826 135.5 878.016 136.1 878.396 136.52C878.776 136.92 879.326 137.12 880.046 137.12C880.886 137.12 881.586 136.9 882.146 136.46L883.196 139.13ZM900.814 132.08C900.814 132.34 900.794 132.71 900.754 133.19H888.184C888.404 134.37 888.974 135.31 889.894 136.01C890.834 136.69 891.994 137.03 893.374 137.03C895.134 137.03 896.584 136.45 897.724 135.29L899.734 137.6C899.014 138.46 898.104 139.11 897.004 139.55C895.904 139.99 894.664 140.21 893.284 140.21C891.524 140.21 889.974 139.86 888.634 139.16C887.294 138.46 886.254 137.49 885.514 136.25C884.794 134.99 884.434 133.57 884.434 131.99C884.434 130.43 884.784 129.03 885.484 127.79C886.204 126.53 887.194 125.55 888.454 124.85C889.714 124.15 891.134 123.8 892.714 123.8C894.274 123.8 895.664 124.15 896.884 124.85C898.124 125.53 899.084 126.5 899.764 127.76C900.464 129 900.814 130.44 900.814 132.08ZM892.714 126.8C891.514 126.8 890.494 127.16 889.654 127.88C888.834 128.58 888.334 129.52 888.154 130.7H897.244C897.084 129.54 896.594 128.6 895.774 127.88C894.954 127.16 893.934 126.8 892.714 126.8Z" fill="white"/>
</g>
<defs>
<clipPath id="clip0">
<rect width="1076.06" height="755.228" fill="white"/>
</clipPath>
</defs>
</svg>
