<svg width="1077" height="756" viewBox="0 0 1077 756" fill="none" xmlns="http://www.w3.org/2000/svg">
<g clip-path="url(#clip0)">
<rect x="401" y="26" width="674" height="413" fill="#1E253D"/>
<rect x="401" width="674" height="24" fill="#F2F2F2"/>
<path d="M864.146 702.423C857.161 729.021 832.687 745.643 832.687 745.643C832.687 745.643 819.536 719.141 826.521 692.543C833.506 665.945 857.98 649.323 857.98 649.323C857.98 649.323 871.13 675.825 864.146 702.423Z" fill="#3F3D56"/>
<path d="M853.552 696.797C833.989 716.124 831.801 745.628 831.801 745.628C831.801 745.628 861.329 743.796 880.892 724.469C900.454 705.142 902.643 675.638 902.643 675.638C902.643 675.638 873.114 677.469 853.552 696.797Z" fill="#509CD9"/>
<path d="M144.734 601.808H181.575L272.363 566.283C272.363 566.283 336.836 539.967 331.573 589.966C326.31 639.965 317.099 707.069 317.099 707.069C317.099 707.069 288.152 693.912 272.363 697.859C256.574 701.806 267.1 617.597 267.1 617.597C267.1 617.597 138.155 679.438 126.313 671.544C114.471 663.649 111.84 608.387 111.84 608.387L144.734 601.808Z" fill="#2F2E41"/>
<path opacity="0.1" d="M144.734 601.808H181.575L272.363 566.283C272.363 566.283 336.836 539.967 331.573 589.966C326.31 639.965 317.099 707.069 317.099 707.069C317.099 707.069 288.152 693.912 272.363 697.859C256.574 701.806 267.1 617.597 267.1 617.597C267.1 617.597 138.155 679.438 126.313 671.544C114.471 663.649 111.84 608.387 111.84 608.387L144.734 601.808Z" fill="black"/>
<path d="M202.778 486.434L247.364 550.494L351.309 637.334C351.309 637.334 447.36 659.702 434.202 675.491C421.045 691.28 340.783 659.702 340.783 659.702C340.783 659.702 221.048 572.861 217.101 566.283C213.154 559.704 169.734 497.863 169.734 497.863L202.778 486.434Z" fill="#F5ACA2"/>
<path opacity="0.1" d="M202.778 486.434L247.364 550.494L351.309 637.334C351.309 637.334 447.36 659.702 434.202 675.491C421.045 691.28 340.783 659.702 340.783 659.702C340.783 659.702 221.048 572.861 217.101 566.283C213.154 559.704 169.734 497.863 169.734 497.863L202.778 486.434Z" fill="black"/>
<path d="M176.312 434.706L205.259 491.284C205.259 491.284 198.68 518.915 188.154 521.547C177.628 524.178 132.892 487.337 132.892 487.337L176.312 434.706Z" fill="#F2F2F2"/>
<path opacity="0.1" d="M176.312 434.706L205.259 491.284C205.259 491.284 198.68 518.915 188.154 521.547C177.628 524.178 132.892 487.337 132.892 487.337L176.312 434.706Z" fill="black"/>
<path d="M529.451 572.514L538.002 607.786C538.097 608.179 538.082 608.591 537.959 608.976L499.171 730.188C499.018 730.668 498.704 731.08 498.283 731.357C497.862 731.634 497.359 731.758 496.857 731.709C496.355 731.659 495.886 731.439 495.527 731.086C495.168 730.732 494.941 730.266 494.884 729.765L489.518 682.546C489.483 682.232 489.515 681.915 489.613 681.615L525.215 572.351C525.364 571.895 525.657 571.5 526.051 571.226C526.444 570.952 526.916 570.814 527.395 570.832C527.874 570.851 528.334 571.025 528.705 571.328C529.076 571.632 529.338 572.048 529.451 572.514Z" fill="#2F2E41"/>
<path d="M526.306 575.493L534.2 605.756L499.99 716.28L492.096 682.07L526.306 575.493Z" fill="#F2F2F2"/>
<path d="M353.941 739.964C355.256 743.911 490.78 738.648 492.096 737.332C493.243 735.684 494.213 733.92 494.99 732.069C496.227 729.437 497.359 726.806 497.359 726.806L492.096 684.201L357.888 679.438C357.888 679.438 354.533 715.543 353.848 732.069C353.677 736.24 353.677 739.174 353.941 739.964Z" fill="#2F2E41"/>
<path opacity="0.1" d="M474.991 689.965L477.622 726.806H418.413V689.965H474.991Z" fill="black"/>
<path opacity="0.1" d="M398.677 701.806L399.03 701.736L397.361 717.596H364.467V701.806H398.677Z" fill="black"/>
<path opacity="0.1" d="M353.941 739.964C355.256 743.911 490.78 738.648 492.096 737.332C493.243 735.684 494.213 733.92 494.99 732.069H353.848C353.677 736.24 353.677 739.174 353.941 739.964Z" fill="black"/>
<path d="M196.049 416.286C228.749 416.286 255.258 389.777 255.258 357.076C255.258 324.376 228.749 297.867 196.049 297.867C163.348 297.867 136.839 324.376 136.839 357.076C136.839 389.777 163.348 416.286 196.049 416.286Z" fill="#F5ACA2"/>
<path d="M192.102 409.707C192.102 409.707 172.365 443.917 168.418 462.337C164.471 480.758 109.208 425.496 109.208 425.496L101.972 406.417C101.972 406.417 153.944 382.076 149.997 362.339C146.05 342.603 192.102 409.707 192.102 409.707Z" fill="#F5ACA2"/>
<path d="M202.628 512.336L256.574 583.388L385.519 679.438C385.519 679.438 478.938 699.175 457.886 713.648C436.834 728.122 376.309 700.491 376.309 700.491C376.309 700.491 246.048 630.755 218.417 601.808C190.786 572.862 139.471 524.178 139.471 524.178L202.628 512.336Z" fill="#F5ACA2"/>
<path d="M130.261 622.861L146.05 647.86L240.281 618.214C260.957 611.71 283.629 614.103 301.968 625.657C318.415 636.018 328.941 652.465 305.257 676.807C257.89 725.49 226.312 699.175 226.312 699.175C226.312 699.175 67.104 774.173 40.7887 737.332C14.4734 700.491 13.1577 682.07 13.1577 682.07C13.1577 682.07 114.472 618.913 130.261 622.861Z" fill="#2F2E41"/>
<path d="M327.625 709.701C327.625 709.701 369.73 737.332 319.731 750.49C269.732 763.647 232.89 745.227 232.89 745.227C232.89 745.227 189.47 745.227 189.47 722.859C189.47 700.491 203.944 697.859 203.944 697.859L248.68 704.438C248.68 704.438 302.626 689.965 327.625 709.701Z" fill="#F2F2F2"/>
<path d="M244.621 342.182C248.651 343.978 252.647 346.105 257.029 346.626C261.41 347.148 266.399 345.618 268.472 341.723C269.592 339.619 269.72 337.145 269.772 334.762C269.931 327.537 269.408 319.726 264.83 314.135C261.916 310.576 257.662 308.333 254.646 304.861C252.485 302.373 251.047 299.358 249.498 296.449C243.632 285.432 234.947 274.844 222.876 271.668C217.836 270.341 212.548 270.406 207.337 270.48L176.94 270.909C172.02 270.978 167.026 271.059 162.317 272.482C152.533 275.441 145.409 283.668 138.884 291.537C134.003 297.423 129.109 303.371 125.446 310.083C120.194 319.879 117.538 330.857 117.732 341.97C117.691 344.82 118.059 347.662 118.824 350.408C119.72 352.926 120.829 355.363 122.141 357.692C127.841 368.889 131.226 382.874 124.806 393.674C135.958 389.119 146.992 383.146 154.348 373.607C157.639 369.339 160.22 364.343 164.606 361.212C168.992 358.08 176.138 357.809 178.952 362.405C179.919 364.264 180.417 366.331 180.403 368.427C180.608 371.877 180.602 375.46 182.065 378.591C183.528 381.722 187.012 384.248 190.339 383.312C196.067 381.698 195.519 372.906 199.931 368.912C203.282 365.878 208.452 366.458 212.757 365.081C217.773 363.477 221.536 359.132 223.681 354.322C225.311 350.666 225.287 341.099 228.371 339.119C232.239 336.636 241.036 340.583 244.621 342.182Z" fill="#2F2E41"/>
<path d="M97.2716 400.176C99.9352 399.465 102.74 399.472 105.4 400.197C113.846 402.464 132.78 408.467 136.839 417.601C142.103 429.443 160.523 447.864 160.523 447.864C160.523 447.864 185.523 472.863 180.26 489.968C174.997 507.073 155.26 526.81 155.26 526.81C155.26 526.81 160.523 608.387 134.208 629.439C107.893 650.492 97.3665 636.018 97.3665 655.755C97.3665 675.491 15.7892 737.332 0 699.175C0 699.175 7.89459 628.124 5.26306 603.124C2.66948 578.485 6.46634 424.759 97.2716 400.176Z" fill="#F2F2F2"/>
<path d="M139.471 433.39C139.471 433.39 219.733 492.6 205.259 517.599C205.259 517.599 156.576 541.283 146.05 539.967C135.524 538.652 94.7351 492.6 84.2089 488.653C73.6828 484.705 68.4198 413.654 139.471 433.39Z" fill="#F2F2F2"/>
<path d="M498.064 302.458C533.962 302.458 563.064 273.356 563.064 237.458C563.064 201.559 533.962 172.458 498.064 172.458C462.165 172.458 433.064 201.559 433.064 237.458C433.064 273.356 462.165 302.458 498.064 302.458Z" fill="#F2F2F2"/>
<path d="M1034.93 153.041H670.681V76.8212H1034.93V153.041ZM672.286 151.436H1033.33V78.4258H672.286V151.436Z" fill="#3F3D56"/>
<path d="M1008.45 92.0651H645.809V166.68H1008.45V92.0651Z" fill="#509CD9"/>
<path d="M416.565 20.8601C419.667 20.8601 422.181 18.3456 422.181 15.2439C422.181 12.1421 419.667 9.62762 416.565 9.62762C413.463 9.62762 410.949 12.1421 410.949 15.2439C410.949 18.3456 413.463 20.8601 416.565 20.8601Z" fill="#509CD9"/>
<path d="M435.82 20.8601C438.922 20.8601 441.437 18.3456 441.437 15.2439C441.437 12.1421 438.922 9.62762 435.82 9.62762C432.719 9.62762 430.204 12.1421 430.204 15.2439C430.204 18.3456 432.719 20.8601 435.82 20.8601Z" fill="#509CD9"/>
<path d="M455.076 20.8601C458.177 20.8601 460.692 18.3456 460.692 15.2439C460.692 12.1421 458.177 9.62762 455.076 9.62762C451.974 9.62762 449.459 12.1421 449.459 15.2439C449.459 18.3456 451.974 20.8601 455.076 20.8601Z" fill="#509CD9"/>
<path d="M1076.06 439.666H400.519V0H1076.06V439.666ZM402.123 438.061H1074.46V1.60462H402.123V438.061Z" fill="#3F3D56"/>
<path d="M1076.06 439.666H400.519V0H1076.06V439.666ZM402.123 438.061H1074.46V1.60462H402.123V438.061Z" stroke="black"/>
<path d="M1075.26 24.338H401.321V25.9427H1075.26V24.338Z" fill="#3F3D56"/>
<path d="M1075.26 24.338H401.321V25.9427H1075.26V24.338Z" stroke="black"/>
<path d="M418.17 19.2555C416.9 19.2555 415.659 18.879 414.604 18.1737C413.548 17.4685 412.725 16.466 412.24 15.2932C411.754 14.1204 411.627 12.8299 411.874 11.5848C412.122 10.3397 412.733 9.19606 413.631 8.29842C414.529 7.40078 415.672 6.78948 416.917 6.54182C418.162 6.29416 419.453 6.42127 420.626 6.90707C421.799 7.39287 422.801 8.21555 423.506 9.27106C424.212 10.3266 424.588 11.5675 424.588 12.837C424.586 14.5387 423.909 16.1701 422.706 17.3733C421.503 18.5766 419.871 19.2535 418.17 19.2555ZM418.17 8.02311C417.218 8.02311 416.287 8.30544 415.495 8.83439C414.704 9.36335 414.087 10.1152 413.722 10.9948C413.358 11.8744 413.262 12.8423 413.448 13.7761C413.634 14.7099 414.092 15.5677 414.766 16.2409C415.439 16.9141 416.297 17.3726 417.23 17.5583C418.164 17.7441 419.132 17.6487 420.012 17.2844C420.891 16.92 421.643 16.303 422.172 15.5114C422.701 14.7198 422.983 13.7891 422.983 12.837C422.982 11.5607 422.474 10.3371 421.572 9.4347C420.669 8.53224 419.446 8.02459 418.17 8.02311V8.02311Z" fill="#3F3D56"/>
<path d="M437.425 19.2555C436.156 19.2555 434.915 18.879 433.859 18.1737C432.804 17.4685 431.981 16.466 431.495 15.2932C431.009 14.1204 430.882 12.8299 431.13 11.5848C431.378 10.3397 431.989 9.19606 432.887 8.29842C433.784 7.40078 434.928 6.78948 436.173 6.54182C437.418 6.29416 438.708 6.42127 439.881 6.90707C441.054 7.39287 442.057 8.21555 442.762 9.27106C443.467 10.3266 443.844 11.5675 443.844 12.837C443.842 14.5387 443.165 16.1701 441.961 17.3733C440.758 18.5766 439.127 19.2535 437.425 19.2555V19.2555ZM437.425 8.02311C436.473 8.02311 435.542 8.30544 434.751 8.83439C433.959 9.36335 433.342 10.1152 432.978 10.9948C432.613 11.8744 432.518 12.8423 432.704 13.7761C432.889 14.7099 433.348 15.5677 434.021 16.2409C434.694 16.9141 435.552 17.3726 436.486 17.5583C437.42 17.7441 438.388 17.6487 439.267 17.2844C440.147 16.92 440.899 16.303 441.428 15.5114C441.957 14.7198 442.239 13.7891 442.239 12.837C442.237 11.5607 441.73 10.3371 440.827 9.4347C439.925 8.53224 438.701 8.02459 437.425 8.02311V8.02311Z" fill="#3F3D56"/>
<path d="M456.681 19.2554C455.411 19.2554 454.17 18.879 453.115 18.1737C452.059 17.4685 451.236 16.466 450.751 15.2932C450.265 14.1204 450.138 12.8299 450.385 11.5848C450.633 10.3397 451.244 9.19606 452.142 8.29842C453.04 7.40078 454.183 6.78948 455.428 6.54182C456.673 6.29416 457.964 6.42127 459.137 6.90706C460.31 7.39286 461.312 8.21553 462.017 9.27104C462.723 10.3266 463.099 11.5675 463.099 12.837C463.097 14.5386 462.42 16.1701 461.217 17.3733C460.014 18.5766 458.382 19.2535 456.681 19.2554V19.2554ZM456.681 8.02311C455.728 8.0231 454.798 8.30543 454.006 8.83439C453.214 9.36334 452.597 10.1152 452.233 10.9948C451.869 11.8744 451.773 12.8423 451.959 13.7761C452.145 14.7099 452.603 15.5676 453.277 16.2409C453.95 16.9141 454.808 17.3726 455.741 17.5583C456.675 17.7441 457.643 17.6487 458.523 17.2844C459.402 16.92 460.154 16.303 460.683 15.5114C461.212 14.7198 461.494 13.7891 461.494 12.837C461.493 11.5607 460.985 10.3372 460.083 9.4347C459.18 8.53225 457.957 8.02459 456.681 8.02311V8.02311Z" fill="#3F3D56"/>
<path d="M612.109 24.6404H611.609V25.1404V439.486V439.986H612.109H613.714H614.214V439.486V25.1404V24.6404H613.714H612.109Z" fill="#F2F2F2" stroke="black"/>
<path d="M806.672 228.859H688.733V244.905H806.672V228.859Z" fill="#F2F2F2"/>
<path d="M992.006 228.859H874.067V244.905H992.006V228.859Z" fill="#F2F2F2"/>
<path d="M813.893 237.684H694.349V220.033H813.893V237.684ZM695.954 236.08H812.289V221.638H695.954V236.08Z" fill="#3F3D56"/>
<path d="M806.672 353.217H688.733V369.263H806.672V353.217Z" fill="#F2F2F2"/>
<path d="M813.893 362.042H694.349V344.392H813.893V362.042ZM695.954 360.438H812.289V345.996H695.954V360.438Z" fill="#3F3D56"/>
<path d="M992.407 289.433H689.134V305.479H992.407V289.433Z" fill="#F2F2F2"/>
<path d="M999.628 299.863H694.75V282.212H999.628V299.863ZM696.355 298.259H998.023V283.817H696.355V298.259Z" fill="#3F3D56"/>
<path d="M999.227 237.684H879.683V220.033H999.227V237.684ZM881.287 236.08H997.622V221.638H881.287V236.08Z" fill="#3F3D56"/>
<path d="M509.064 285.458C496.01 285.458 483.25 281.587 472.396 274.335C461.542 267.083 453.083 256.775 448.088 244.715C443.092 232.655 441.785 219.385 444.332 206.582C446.879 193.779 453.164 182.019 462.395 172.789C471.625 163.559 483.385 157.273 496.188 154.726C508.991 152.179 522.261 153.487 534.321 158.482C546.381 163.477 556.689 171.937 563.941 182.79C571.193 193.644 575.064 206.404 575.064 219.458C575.044 236.956 568.084 253.732 555.711 266.105C543.338 278.478 526.562 285.438 509.064 285.458ZM509.064 155.458C496.406 155.458 484.032 159.211 473.507 166.244C462.982 173.276 454.779 183.272 449.935 194.966C445.091 206.661 443.824 219.529 446.293 231.944C448.763 244.359 454.858 255.762 463.809 264.713C472.759 273.663 484.163 279.759 496.578 282.228C508.993 284.698 521.861 283.43 533.556 278.586C545.25 273.742 555.245 265.539 562.278 255.014C569.31 244.49 573.064 232.116 573.064 219.458C573.045 202.49 566.295 186.223 554.297 174.224C542.299 162.226 526.032 155.477 509.064 155.458Z" fill="#3F3D56"/>
<path d="M1031.06 744.458H748.064V746.458H1031.06V744.458Z" fill="#3F3D56"/>
<path d="M743.826 132.59V140H739.926V132.65L731.676 119H735.846L741.996 129.23L748.206 119H752.046L743.826 132.59ZM759.653 140.21C758.033 140.21 756.573 139.86 755.273 139.16C753.973 138.46 752.953 137.49 752.213 136.25C751.493 134.99 751.133 133.57 751.133 131.99C751.133 130.41 751.493 129 752.213 127.76C752.953 126.52 753.973 125.55 755.273 124.85C756.573 124.15 758.033 123.8 759.653 123.8C761.293 123.8 762.763 124.15 764.063 124.85C765.363 125.55 766.373 126.52 767.093 127.76C767.833 129 768.203 130.41 768.203 131.99C768.203 133.57 767.833 134.99 767.093 136.25C766.373 137.49 765.363 138.46 764.063 139.16C762.763 139.86 761.293 140.21 759.653 140.21ZM759.653 137C761.033 137 762.173 136.54 763.073 135.62C763.973 134.7 764.423 133.49 764.423 131.99C764.423 130.49 763.973 129.28 763.073 128.36C762.173 127.44 761.033 126.98 759.653 126.98C758.273 126.98 757.133 127.44 756.233 128.36C755.353 129.28 754.913 130.49 754.913 131.99C754.913 133.49 755.353 134.7 756.233 135.62C757.133 136.54 758.273 137 759.653 137ZM787.299 123.98V140H783.729V137.96C783.129 138.68 782.379 139.24 781.479 139.64C780.579 140.02 779.609 140.21 778.569 140.21C776.429 140.21 774.739 139.62 773.499 138.44C772.279 137.24 771.669 135.47 771.669 133.13V123.98H775.419V132.62C775.419 134.06 775.739 135.14 776.379 135.86C777.039 136.56 777.969 136.91 779.169 136.91C780.509 136.91 781.569 136.5 782.349 135.68C783.149 134.84 783.549 133.64 783.549 132.08V123.98H787.299ZM795.779 126.32C796.859 124.64 798.759 123.8 801.479 123.8V127.37C801.159 127.31 800.869 127.28 800.609 127.28C799.149 127.28 798.009 127.71 797.189 128.57C796.369 129.41 795.959 130.63 795.959 132.23V140H792.209V123.98H795.779V126.32ZM844.148 119L837.188 140H833.048L827.858 124.46L822.578 140H818.408L811.448 119H815.498L820.718 134.96L826.148 119H829.748L835.058 135.05L840.428 119H844.148ZM860.824 132.08C860.824 132.34 860.804 132.71 860.764 133.19H848.194C848.414 134.37 848.984 135.31 849.904 136.01C850.844 136.69 852.004 137.03 853.384 137.03C855.144 137.03 856.594 136.45 857.734 135.29L859.744 137.6C859.024 138.46 858.114 139.11 857.014 139.55C855.914 139.99 854.674 140.21 853.294 140.21C851.534 140.21 849.984 139.86 848.644 139.16C847.304 138.46 846.264 137.49 845.524 136.25C844.804 134.99 844.444 133.57 844.444 131.99C844.444 130.43 844.794 129.03 845.494 127.79C846.214 126.53 847.204 125.55 848.464 124.85C849.724 124.15 851.144 123.8 852.724 123.8C854.284 123.8 855.674 124.15 856.894 124.85C858.134 125.53 859.094 126.5 859.774 127.76C860.474 129 860.824 130.44 860.824 132.08ZM852.724 126.8C851.524 126.8 850.504 127.16 849.664 127.88C848.844 128.58 848.344 129.52 848.164 130.7H857.254C857.094 129.54 856.604 128.6 855.784 127.88C854.964 127.16 853.944 126.8 852.724 126.8ZM873.306 123.8C874.866 123.8 876.256 124.14 877.476 124.82C878.716 125.5 879.686 126.46 880.386 127.7C881.086 128.94 881.436 130.37 881.436 131.99C881.436 133.61 881.086 135.05 880.386 136.31C879.686 137.55 878.716 138.51 877.476 139.19C876.256 139.87 874.866 140.21 873.306 140.21C872.206 140.21 871.196 140.02 870.276 139.64C869.376 139.26 868.616 138.69 867.996 137.93V140H864.426V117.74H868.176V125.93C868.816 125.23 869.566 124.7 870.426 124.34C871.306 123.98 872.266 123.8 873.306 123.8ZM872.886 137C874.266 137 875.396 136.54 876.276 135.62C877.176 134.7 877.626 133.49 877.626 131.99C877.626 130.49 877.176 129.28 876.276 128.36C875.396 127.44 874.266 126.98 872.886 126.98C871.986 126.98 871.176 127.19 870.456 127.61C869.736 128.01 869.166 128.59 868.746 129.35C868.326 130.11 868.116 130.99 868.116 131.99C868.116 132.99 868.326 133.87 868.746 134.63C869.166 135.39 869.736 135.98 870.456 136.4C871.176 136.8 871.986 137 872.886 137ZM884.992 123.98H888.742V140H884.992V123.98ZM886.882 121.34C886.202 121.34 885.632 121.13 885.172 120.71C884.712 120.27 884.482 119.73 884.482 119.09C884.482 118.45 884.712 117.92 885.172 117.5C885.632 117.06 886.202 116.84 886.882 116.84C887.562 116.84 888.132 117.05 888.592 117.47C889.052 117.87 889.282 118.38 889.282 119C889.282 119.66 889.052 120.22 888.592 120.68C888.152 121.12 887.582 121.34 886.882 121.34ZM903.294 139.13C902.854 139.49 902.314 139.76 901.674 139.94C901.054 140.12 900.394 140.21 899.694 140.21C897.934 140.21 896.574 139.75 895.614 138.83C894.654 137.91 894.174 136.57 894.174 134.81V127.1H891.534V124.1H894.174V120.44H897.924V124.1H902.214V127.1H897.924V134.72C897.924 135.5 898.114 136.1 898.494 136.52C898.874 136.92 899.424 137.12 900.144 137.12C900.984 137.12 901.684 136.9 902.244 136.46L903.294 139.13ZM920.912 132.08C920.912 132.34 920.892 132.71 920.852 133.19H908.282C908.502 134.37 909.072 135.31 909.992 136.01C910.932 136.69 912.092 137.03 913.472 137.03C915.232 137.03 916.682 136.45 917.822 135.29L919.832 137.6C919.112 138.46 918.202 139.11 917.102 139.55C916.002 139.99 914.762 140.21 913.382 140.21C911.622 140.21 910.072 139.86 908.732 139.16C907.392 138.46 906.352 137.49 905.612 136.25C904.892 134.99 904.532 133.57 904.532 131.99C904.532 130.43 904.882 129.03 905.582 127.79C906.302 126.53 907.292 125.55 908.552 124.85C909.812 124.15 911.232 123.8 912.812 123.8C914.372 123.8 915.762 124.15 916.982 124.85C918.222 125.53 919.182 126.5 919.862 127.76C920.562 129 920.912 130.44 920.912 132.08ZM912.812 126.8C911.612 126.8 910.592 127.16 909.752 127.88C908.932 128.58 908.432 129.52 908.252 130.7H917.342C917.182 129.54 916.692 128.6 915.872 127.88C915.052 127.16 914.032 126.8 912.812 126.8Z" fill="white"/>
</g>
<defs>
<clipPath id="clip0">
<rect width="1076.06" height="755.228" fill="white"/>
</clipPath>
</defs>
</svg>
